<?xml version="1.0" encoding="UTF-8"?>
<svg id="Layer_1" data-name="Layer 1" xmlns="http://www.w3.org/2000/svg" version="1.1" viewBox="0 0 64 64">
  <defs>
    <style>
      .cls-1 {
        fill: #facc18;
      }

      .cls-1, .cls-2, .cls-3 {
        stroke-width: 0px;
      }

      .cls-2 {
        fill: #d0d4da;
      }

      .cls-3 {
        fill: #4c5564;
      }
    </style>
  </defs>
  <g>
    <path class="cls-2" d="M32,38.2c-3.4,0-6.2-2.8-6.2-6.2s2.8-6.2,6.2-6.2,6.2,2.8,6.2,6.2-2.8,6.2-6.2,6.2ZM32,28.7c-1.8,0-3.3,1.5-3.3,3.3s1.5,3.3,3.3,3.3,3.3-1.5,3.3-3.3-1.5-3.3-3.3-3.3Z"/>
    <path class="cls-2" d="M32,44c-12,0-17.4-10.8-17.6-11.3-.2-.4-.2-.9,0-1.3.2-.5,5.6-11.3,17.6-11.3s17.4,10.8,17.6,11.3c.2.4.2.9,0,1.3-.2.5-5.6,11.3-17.6,11.3ZM17.4,32c1.3,2.2,5.9,9,14.6,9s13.3-6.8,14.6-9c-1.3-2.2-5.9-9-14.6-9s-13.3,6.8-14.6,9Z"/>
  </g>
  <path class="cls-3" d="M57.2,60H6.8c-.8,0-1.5-.7-1.5-1.5V5.5c0-.8.7-1.5,1.5-1.5h50.4c.8,0,1.5.7,1.5,1.5v53c0,.8-.7,1.5-1.5,1.5ZM8.3,57h47.4V7H8.3v50Z"/>
  <path class="cls-1" d="M19,46.5c-.4,0-.8-.1-1.1-.4-.6-.6-.6-1.5,0-2.1l25.9-25.9c.6-.6,1.5-.6,2.1,0s.6,1.5,0,2.1l-25.9,25.9c-.3.3-.7.4-1.1.4Z"/>
</svg>