<?xml version="1.0" encoding="UTF-8"?>
<svg id="Layer_1" data-name="Layer 1" xmlns="http://www.w3.org/2000/svg" version="1.1" viewBox="0 0 64 64">
  <defs>
    <style>
      .cls-1 {
        fill: #facc18;
      }

      .cls-1, .cls-2 {
        stroke-width: 0px;
      }

      .cls-2 {
        fill: #d0d4da;
      }
    </style>
  </defs>
  <path class="cls-1" d="M12.1,19.3c-3.4,0-6.2-2.8-6.2-6.2s2.8-6.2,6.2-6.2,6.2,2.8,6.2,6.2-2.8,6.2-6.2,6.2ZM12.1,9.8c-1.8,0-3.3,1.5-3.3,3.3s1.5,3.3,3.3,3.3,3.3-1.5,3.3-3.3-1.5-3.3-3.3-3.3Z"/>
  <path class="cls-2" d="M55.8,14.5h-29.2c-.8,0-1.5-.7-1.5-1.5s.7-1.5,1.5-1.5h29.2c.8,0,1.5.7,1.5,1.5s-.7,1.5-1.5,1.5Z"/>
  <path class="cls-1" d="M12.1,38.2c-3.4,0-6.2-2.8-6.2-6.2s2.8-6.2,6.2-6.2,6.2,2.8,6.2,6.2-2.8,6.2-6.2,6.2ZM12.1,28.7c-1.8,0-3.3,1.5-3.3,3.3s1.5,3.3,3.3,3.3,3.3-1.5,3.3-3.3-1.5-3.3-3.3-3.3Z"/>
  <path class="cls-2" d="M55.8,33.5h-29.2c-.8,0-1.5-.7-1.5-1.5s.7-1.5,1.5-1.5h29.2c.8,0,1.5.7,1.5,1.5s-.7,1.5-1.5,1.5Z"/>
  <path class="cls-1" d="M12.1,57.2c-3.4,0-6.2-2.8-6.2-6.2s2.8-6.2,6.2-6.2,6.2,2.8,6.2,6.2-2.8,6.2-6.2,6.2ZM12.1,47.7c-1.8,0-3.3,1.5-3.3,3.3s1.5,3.3,3.3,3.3,3.3-1.5,3.3-3.3-1.5-3.3-3.3-3.3Z"/>
  <path class="cls-2" d="M55.8,52.5h-29.2c-.8,0-1.5-.7-1.5-1.5s.7-1.5,1.5-1.5h29.2c.8,0,1.5.7,1.5,1.5s-.7,1.5-1.5,1.5Z"/>
</svg>