<?xml version="1.0" encoding="UTF-8"?>
<svg id="Layer_1" data-name="Layer 1" xmlns="http://www.w3.org/2000/svg" version="1.1" viewBox="0 0 64 64">
  <defs>
    <style>
      .cls-1 {
        fill: #facc18;
      }

      .cls-1, .cls-2 {
        stroke-width: 0px;
      }

      .cls-2 {
        fill: #d0d4da;
      }
    </style>
  </defs>
  <g>
    <path class="cls-2" d="M16.1,38.1v6.2l3-3v-3.3c0-1.8,1.4-3.2,3-3.2h3.9v-3h-3.9c-3.3,0-6,2.8-6,6.2Z"/>
    <path class="cls-2" d="M53.9,17.1l-7.8-7.8c-1.2-1.2-2.8-1.9-4.5-1.9H14.6c-3.5,0-6.3,2.8-6.3,6.3v35.2c0,3.5,2.8,6.3,6.3,6.3h9.2l-3-3h-1.7v-1.7l-3-3v4.7h-1.5c-1.8,0-3.4-1.5-3.4-3.4V13.8c0-1.8,1.5-3.4,3.4-3.4h4.4v9.2c0,2.6,2.1,4.7,4.7,4.7h13.8c2.6,0,4.7-2.1,4.7-4.7v-9.1c.7.1,1.3.4,1.8.9l7.8,7.8c.6.6,1,1.5,1,2.4v27.4c0,1.8-1.5,3.4-3.4,3.4h-1.5v-4.7l-3,3v1.7h-1.7l-3,3h9.2c3.5,0,6.3-2.8,6.3-6.3v-27.4c0-1.7-.7-3.3-1.9-4.5ZM39.1,19.7c0,.9-.7,1.7-1.7,1.7h-13.8c-.9,0-1.7-.7-1.7-1.7v-9.2h17.2v9.2Z"/>
    <path class="cls-2" d="M41.9,31.9h-3.9v3h3.9c1.7,0,3,1.4,3,3.2v3.3l3,3v-6.2c0-3.4-2.7-6.2-6-6.2Z"/>
  </g>
  <path class="cls-1" d="M42.1,44.9c-.6-.6-1.5-.6-2.1,0l-6.5,6.5v-19.3c0-.8-.7-1.5-1.5-1.5s-1.5.7-1.5,1.5v19.3l-6.5-6.5c-.6-.6-1.5-.6-2.1,0s-.6,1.5,0,2.1l9.1,9.1c.3.3.7.4,1.1.4s.8-.1,1.1-.4l9.1-9.1c.6-.6.6-1.5,0-2.1Z"/>
</svg>