<?xml version="1.0" encoding="UTF-8"?>
<svg id="Layer_1" data-name="Layer 1" xmlns="http://www.w3.org/2000/svg" version="1.1" viewBox="0 0 64 64">
  <defs>
    <style>
      .cls-1 {
        fill: #facc18;
      }

      .cls-1, .cls-2 {
        stroke-width: 0px;
      }

      .cls-2 {
        fill: #d0d4da;
      }
    </style>
  </defs>
  <g>
    <path class="cls-2" d="M12.6,33.4h13.2c.8,0,1.5-.7,1.5-1.5s-.7-1.5-1.5-1.5h-13.2l5.5-5.5c.6-.6.6-1.5,0-2.1s-1.5-.6-2.1,0l-8.1,8.1c-.6.6-.6,1.5,0,2.1l8.1,8.1c.3.3.7.4,1.1.4s.8-.1,1.1-.4c.6-.6.6-1.5,0-2.1l-5.5-5.5Z"/>
    <path class="cls-2" d="M56.1,31l-8.1-8.1c-.6-.6-1.5-.6-2.1,0s-.6,1.5,0,2.1l5.5,5.5h-13.2c-.8,0-1.5.7-1.5,1.5s.7,1.5,1.5,1.5h13.2l-5.5,5.5c-.6.6-.6,1.5,0,2.1s.7.4,1.1.4.8-.1,1.1-.4l8.1-8.1c.6-.6.6-1.5,0-2.1Z"/>
    <path class="cls-2" d="M25,18.1l5.5-5.5v13.2c0,.8.7,1.5,1.5,1.5s1.5-.7,1.5-1.5v-13.2l5.5,5.5c.3.3.7.4,1.1.4s.8-.1,1.1-.4c.6-.6.6-1.5,0-2.1l-8.1-8.1c-.6-.6-1.6-.6-2.1,0l-8.1,8.1c-.6.6-.6,1.5,0,2.1s1.5.6,2.1,0Z"/>
    <path class="cls-2" d="M39,45.9l-5.5,5.5v-13.2c0-.8-.7-1.5-1.5-1.5s-1.5.7-1.5,1.5v13.2l-5.5-5.5c-.6-.6-1.5-.6-2.1,0s-.6,1.5,0,2.1l8.1,8.1c.3.3.7.4,1.1.4s.8-.1,1.1-.4l8.1-8.1c.6-.6.6-1.5,0-2.1s-1.5-.6-2.1,0Z"/>
  </g>
  <path class="cls-1" d="M32,39.7c-4.3,0-7.7-3.5-7.7-7.7s3.5-7.7,7.7-7.7,7.7,3.5,7.7,7.7-3.5,7.7-7.7,7.7ZM32,27.3c-2.6,0-4.7,2.1-4.7,4.7s2.1,4.7,4.7,4.7,4.7-2.1,4.7-4.7-2.1-4.7-4.7-4.7Z"/>
</svg>