<?xml version="1.0" encoding="UTF-8"?>
<svg id="Layer_1" data-name="Layer 1" xmlns="http://www.w3.org/2000/svg" version="1.1" viewBox="0 0 64 64">
  <defs>
    <style>
      .cls-1 {
        fill: #facc18;
      }

      .cls-1, .cls-2 {
        stroke-width: 0px;
      }

      .cls-2 {
        fill: #d0d4da;
      }
    </style>
  </defs>
  <path class="cls-2" d="M36.6,52.2H14.6c-1.8,0-3.3-1.5-3.3-3.3V13.7c0-1.8,1.5-3.3,3.3-3.3h26.9c.9,0,1.7.4,2.4,1l7.8,7.8c.6.6,1,1.5,1,2.4v14.3c1.1.3,2.1.8,3,1.3v-15.6c0-1.7-.7-3.3-1.8-4.5l-7.8-7.8c-1.2-1.2-2.8-1.9-4.5-1.9H14.6c-3.5,0-6.3,2.8-6.3,6.3v35.1c0,3.5,2.8,6.3,6.3,6.3h23.4c-.6-.9-1-1.9-1.4-3Z"/>
  <path class="cls-1" d="M48.8,56.6c-4.7,0-8.5-3.8-8.5-8.5s3.8-8.5,8.5-8.5,8.5,3.8,8.5,8.5-3.8,8.5-8.5,8.5ZM48.8,42.6c-3,0-5.5,2.5-5.5,5.5s2.5,5.5,5.5,5.5,5.5-2.5,5.5-5.5-2.5-5.5-5.5-5.5Z"/>
  <path class="cls-1" d="M48.8,50.5c-1.3,0-2.4-1.1-2.4-2.4s1.1-2.4,2.4-2.4,2.4,1.1,2.4,2.4-1.1,2.4-2.4,2.4Z"/>
</svg>