<?xml version="1.0" encoding="UTF-8"?>
<svg id="Layer_1" data-name="Layer 1" xmlns="http://www.w3.org/2000/svg" version="1.1" viewBox="0 0 64 64">
  <defs>
    <style>
      .cls-1 {
        fill: #facc18;
      }

      .cls-1, .cls-2, .cls-3 {
        stroke-width: 0px;
      }

      .cls-2 {
        fill: #d0d4da;
      }

      .cls-3 {
        fill: #4c5564;
      }

      .cls-4 {
        display: none;
      }
    </style>
  </defs>
  <g class="cls-4">
    <path class="cls-2" d="M54.1,13.2c-.8-.2-1.6.3-1.8,1.1l-1.9,7.1c-3.8-6.5-10.7-10.7-18.4-10.7s-17.3,5.8-20.2,14.5c-.3.8.2,1.6.9,1.9.8.3,1.6-.2,1.9-.9,2.5-7.5,9.5-12.5,17.4-12.5s13.1,3.8,16.2,9.8l-8.1-2.1c-.8-.2-1.6.3-1.8,1.1-.2.8.3,1.6,1.1,1.8l11,2.9c.1,0,.3,0,.4,0,0,0,0,0,0,0s0,0,0,0,0,0,0,0c0,0,0,0,0,0,.2,0,.3,0,.5,0,.1,0,.2-.1.3-.2,0,0,0,0,.1,0,.2-.2.4-.4.5-.7,0,0,0,0,0,0l2.9-11c.2-.8-.3-1.6-1.1-1.8Z"/>
    <path class="cls-1" d="M51.3,36.9c-.8-.3-1.6.2-1.9.9-2.5,7.5-9.5,12.5-17.4,12.5s-13.1-3.8-16.2-9.8l8,2.1c.8.2,1.6-.3,1.8-1.1.2-.8-.3-1.6-1.1-1.8l-11-2.9s0,0,0,0c-.1,0-.2,0-.3,0-.1,0-.2,0-.3,0,0,0,0,0,0,0,0,0,0,0,0,0-.1,0-.3.1-.4.2,0,0,0,0,0,0-.1.1-.2.2-.3.4,0,0,0,0,0,0,0,0,0,.2-.1.2l-2.9,11c-.2.8.3,1.6,1.1,1.8.1,0,.3,0,.4,0,.7,0,1.3-.4,1.4-1.1l1.9-7.1c3.8,6.5,10.7,10.7,18.4,10.7s17.3-5.8,20.2-14.5c.3-.8-.2-1.6-.9-1.9Z"/>
  </g>
  <g class="cls-4">
    <g>
      <path class="cls-2" d="M53.9,17.1l-7.8-7.8c-1.2-1.2-2.8-1.9-4.5-1.9H14.6c-3.5,0-6.3,2.8-6.3,6.3v35.2c0,3.5,2.8,6.3,6.3,6.3h11.4v-3h-6.9v-6.4l-3-3v9.4h-1.5c-1.8,0-3.4-1.5-3.4-3.4V13.8c0-1.8,1.5-3.4,3.4-3.4h4.4v9.2c0,2.6,2.1,4.7,4.7,4.7h13.8c2.6,0,4.7-2.1,4.7-4.7v-9.1c.7.1,1.3.4,1.8.9l7.8,7.8c.6.6,1,1.5,1,2.4v27.4c0,1.8-1.5,3.4-3.4,3.4h-1.5v-9.4l-3,3v6.4h-6.9v3h11.4c3.5,0,6.3-2.8,6.3-6.3v-27.4c0-1.7-.7-3.3-1.9-4.5ZM39.1,19.7c0,.9-.7,1.7-1.7,1.7h-13.8c-.9,0-1.7-.7-1.7-1.7v-9.2h17.2v9.2Z"/>
      <path class="cls-2" d="M41.9,31.9h-1.7l7.7,7.7v-1.5c0-3.4-2.7-6.2-6-6.2Z"/>
      <path class="cls-2" d="M16.1,38.1v1.5l7.7-7.7h-1.7c-3.3,0-6,2.8-6,6.2Z"/>
    </g>
    <path class="cls-1" d="M42.1,40.2l-9.1-9.1c-.6-.6-1.5-.6-2.1,0l-9.1,9.1c-.6.6-.6,1.5,0,2.1s1.5.6,2.1,0l6.5-6.5v19.3c0,.8.7,1.5,1.5,1.5s1.5-.7,1.5-1.5v-19.3l6.5,6.5c.3.3.7.4,1.1.4s.8-.1,1.1-.4c.6-.6.6-1.5,0-2.1Z"/>
  </g>
  <g class="cls-4">
    <g>
      <path class="cls-2" d="M16.1,38.1v6.2l3-3v-3.3c0-1.8,1.4-3.2,3-3.2h3.9v-3h-3.9c-3.3,0-6,2.8-6,6.2Z"/>
      <path class="cls-2" d="M53.9,17.1l-7.8-7.8c-1.2-1.2-2.8-1.9-4.5-1.9H14.6c-3.5,0-6.3,2.8-6.3,6.3v35.2c0,3.5,2.8,6.3,6.3,6.3h9.2l-3-3h-1.7v-1.7l-3-3v4.7h-1.5c-1.8,0-3.4-1.5-3.4-3.4V13.8c0-1.8,1.5-3.4,3.4-3.4h4.4v9.2c0,2.6,2.1,4.7,4.7,4.7h13.8c2.6,0,4.7-2.1,4.7-4.7v-9.1c.7.1,1.3.4,1.8.9l7.8,7.8c.6.6,1,1.5,1,2.4v27.4c0,1.8-1.5,3.4-3.4,3.4h-1.5v-4.7l-3,3v1.7h-1.7l-3,3h9.2c3.5,0,6.3-2.8,6.3-6.3v-27.4c0-1.7-.7-3.3-1.9-4.5ZM39.1,19.7c0,.9-.7,1.7-1.7,1.7h-13.8c-.9,0-1.7-.7-1.7-1.7v-9.2h17.2v9.2Z"/>
      <path class="cls-2" d="M41.9,31.9h-3.9v3h3.9c1.7,0,3,1.4,3,3.2v3.3l3,3v-6.2c0-3.4-2.7-6.2-6-6.2Z"/>
    </g>
    <path class="cls-1" d="M42.1,44.9c-.6-.6-1.5-.6-2.1,0l-6.5,6.5v-19.3c0-.8-.7-1.5-1.5-1.5s-1.5.7-1.5,1.5v19.3l-6.5-6.5c-.6-.6-1.5-.6-2.1,0s-.6,1.5,0,2.1l9.1,9.1c.3.3.7.4,1.1.4s.8-.1,1.1-.4l9.1-9.1c.6-.6.6-1.5,0-2.1Z"/>
  </g>
  <g class="cls-4">
    <path class="cls-1" d="M10.4,37.3c-.5.2-1.1.3-1.7.3-3,0-5.5-2.5-5.5-5.5s2.5-5.5,5.5-5.5,1.1.1,1.5.2l2.3-2.3c-1.2-.6-2.4-1-3.8-1C4.1,23.6.2,27.4.2,32.1s3.8,8.5,8.5,8.5,2.8-.4,3.9-1l-2.3-2.3Z"/>
    <path class="cls-2" d="M53.2,30.5H17.2l6.5-6.5c.6-.6.6-1.5,0-2.1s-1.5-.6-2.1,0l-9.1,9.1c-.3.3-.4.7-.4,1.1s.2.8.4,1.1l9.1,9.1c.3.3.7.4,1.1.4s.8-.1,1.1-.4c.6-.6.6-1.5,0-2.1l-6.5-6.5h36c4.2,0,7.6,3.4,7.6,7.6s.7,1.5,1.5,1.5,1.5-.7,1.5-1.5c0-5.8-4.7-10.6-10.6-10.6Z"/>
  </g>
  <g class="cls-4">
    <g>
      <path class="cls-2" d="M12.6,33.4h13.2c.8,0,1.5-.7,1.5-1.5s-.7-1.5-1.5-1.5h-13.2l5.5-5.5c.6-.6.6-1.5,0-2.1s-1.5-.6-2.1,0l-8.1,8.1c-.6.6-.6,1.5,0,2.1l8.1,8.1c.3.3.7.4,1.1.4s.8-.1,1.1-.4c.6-.6.6-1.5,0-2.1l-5.5-5.5Z"/>
      <path class="cls-2" d="M56.1,31l-8.1-8.1c-.6-.6-1.5-.6-2.1,0s-.6,1.5,0,2.1l5.5,5.5h-13.2c-.8,0-1.5.7-1.5,1.5s.7,1.5,1.5,1.5h13.2l-5.5,5.5c-.6.6-.6,1.5,0,2.1s.7.4,1.1.4.8-.1,1.1-.4l8.1-8.1c.6-.6.6-1.5,0-2.1Z"/>
      <path class="cls-2" d="M25,18.1l5.5-5.5v13.2c0,.8.7,1.5,1.5,1.5s1.5-.7,1.5-1.5v-13.2l5.5,5.5c.3.3.7.4,1.1.4s.8-.1,1.1-.4c.6-.6.6-1.5,0-2.1l-8.1-8.1c-.6-.6-1.6-.6-2.1,0l-8.1,8.1c-.6.6-.6,1.5,0,2.1s1.5.6,2.1,0Z"/>
      <path class="cls-2" d="M39,45.9l-5.5,5.5v-13.2c0-.8-.7-1.5-1.5-1.5s-1.5.7-1.5,1.5v13.2l-5.5-5.5c-.6-.6-1.5-.6-2.1,0s-.6,1.5,0,2.1l8.1,8.1c.3.3.7.4,1.1.4s.8-.1,1.1-.4l8.1-8.1c.6-.6.6-1.5,0-2.1s-1.5-.6-2.1,0Z"/>
    </g>
    <path class="cls-1" d="M32,39.7c-4.3,0-7.7-3.5-7.7-7.7s3.5-7.7,7.7-7.7,7.7,3.5,7.7,7.7-3.5,7.7-7.7,7.7ZM32,27.3c-2.6,0-4.7,2.1-4.7,4.7s2.1,4.7,4.7,4.7,4.7-2.1,4.7-4.7-2.1-4.7-4.7-4.7Z"/>
  </g>
  <g class="cls-4">
    <path class="cls-1" d="M32,39.7c-4.3,0-7.7-3.5-7.7-7.7s3.5-7.7,7.7-7.7,7.7,3.5,7.7,7.7-3.5,7.7-7.7,7.7ZM32,27.3c-2.6,0-4.7,2.1-4.7,4.7s2.1,4.7,4.7,4.7,4.7-2.1,4.7-4.7-2.1-4.7-4.7-4.7Z"/>
    <g>
      <path class="cls-2" d="M54.1,13.2c-.8-.2-1.6.3-1.8,1.1l-1.9,7.1c-3.8-6.5-10.7-10.7-18.4-10.7s-17.3,5.8-20.2,14.5c-.3.8.2,1.6.9,1.9.8.3,1.6-.2,1.9-.9,2.5-7.5,9.5-12.5,17.4-12.5s13.1,3.8,16.2,9.8l-8.1-2.1c-.8-.2-1.6.3-1.8,1.1-.2.8.3,1.6,1.1,1.8l11,2.9c.1,0,.3,0,.4,0s.3,0,.5,0c.1,0,.2-.1.3-.2,0,0,0,0,.1,0,.2-.2.4-.4.5-.7,0,0,0,0,0,0l2.9-11c.2-.8-.3-1.6-1.1-1.8Z"/>
      <path class="cls-2" d="M51.3,36.9c-.8-.3-1.6.2-1.9.9-2.5,7.5-9.5,12.5-17.4,12.5s-13.1-3.8-16.2-9.8l8,2.1c.8.2,1.6-.3,1.8-1.1.2-.8-.3-1.6-1.1-1.8l-11-2.9s0,0,0,0c-.1,0-.2,0-.3,0-.1,0-.2,0-.3,0,0,0,0,0,0,0,0,0,0,0,0,0-.1,0-.3.1-.4.2,0,0,0,0,0,0-.1.1-.2.2-.3.4,0,0,0,0,0,0,0,0,0,.2-.1.2l-2.9,11c-.2.8.3,1.6,1.1,1.8.1,0,.3,0,.4,0,.7,0,1.3-.4,1.4-1.1l1.9-7.1c3.8,6.5,10.7,10.7,18.4,10.7s17.3-5.8,20.2-14.5c.3-.8-.2-1.6-.9-1.9Z"/>
    </g>
  </g>
  <g class="cls-4">
    <path class="cls-1" d="M36.8,39.7c-4.3,0-7.7-3.5-7.7-7.7s3.5-7.7,7.7-7.7,7.7,3.5,7.7,7.7-3.5,7.7-7.7,7.7ZM36.8,27.3c-2.6,0-4.7,2.1-4.7,4.7s2.1,4.7,4.7,4.7,4.7-2.1,4.7-4.7-2.1-4.7-4.7-4.7Z"/>
    <path class="cls-2" d="M36.8,10.6c-11.8,0-21.4,9.6-21.4,21.4v18.4h-6.5v-1.6c0-.8-.7-1.5-1.5-1.5s-1.5.7-1.5,1.5v3.1c0,.8.7,1.5,1.5,1.5h29.4c11.8,0,21.4-9.6,21.4-21.4s-9.6-21.4-21.4-21.4ZM36.8,50.4h-18.4v-18.4c0-10.1,8.2-18.4,18.4-18.4s18.4,8.2,18.4,18.4-8.2,18.4-18.4,18.4Z"/>
  </g>
  <g class="cls-4">
    <g>
      <path class="cls-1" d="M32,38.2c-3.4,0-6.2-2.8-6.2-6.2s2.8-6.2,6.2-6.2,6.2,2.8,6.2,6.2-2.8,6.2-6.2,6.2ZM32,28.7c-1.8,0-3.3,1.5-3.3,3.3s1.5,3.3,3.3,3.3,3.3-1.5,3.3-3.3-1.5-3.3-3.3-3.3Z"/>
      <path class="cls-2" d="M32,44c-12,0-17.4-10.8-17.6-11.3-.2-.4-.2-.9,0-1.3.2-.5,5.6-11.3,17.6-11.3s17.4,10.8,17.6,11.3c.2.4.2.9,0,1.3-.2.5-5.6,11.3-17.6,11.3ZM17.4,32c1.3,2.2,5.9,9,14.6,9s13.3-6.8,14.6-9c-1.3-2.2-5.9-9-14.6-9s-13.3,6.8-14.6,9Z"/>
    </g>
    <path class="cls-2" d="M57.2,60H6.8c-.8,0-1.5-.7-1.5-1.5V5.5c0-.8.7-1.5,1.5-1.5h50.4c.8,0,1.5.7,1.5,1.5v53c0,.8-.7,1.5-1.5,1.5ZM8.3,57h47.4V7H8.3v50Z"/>
  </g>
  <g class="cls-4">
    <g>
      <path class="cls-2" d="M32,38.2c-3.4,0-6.2-2.8-6.2-6.2s2.8-6.2,6.2-6.2,6.2,2.8,6.2,6.2-2.8,6.2-6.2,6.2ZM32,28.7c-1.8,0-3.3,1.5-3.3,3.3s1.5,3.3,3.3,3.3,3.3-1.5,3.3-3.3-1.5-3.3-3.3-3.3Z"/>
      <path class="cls-2" d="M32,44c-12,0-17.4-10.8-17.6-11.3-.2-.4-.2-.9,0-1.3.2-.5,5.6-11.3,17.6-11.3s17.4,10.8,17.6,11.3c.2.4.2.9,0,1.3-.2.5-5.6,11.3-17.6,11.3ZM17.4,32c1.3,2.2,5.9,9,14.6,9s13.3-6.8,14.6-9c-1.3-2.2-5.9-9-14.6-9s-13.3,6.8-14.6,9Z"/>
    </g>
    <path class="cls-3" d="M57.2,60H6.8c-.8,0-1.5-.7-1.5-1.5V5.5c0-.8.7-1.5,1.5-1.5h50.4c.8,0,1.5.7,1.5,1.5v53c0,.8-.7,1.5-1.5,1.5ZM8.3,57h47.4V7H8.3v50Z"/>
    <path class="cls-1" d="M19,46.5c-.4,0-.8-.1-1.1-.4-.6-.6-.6-1.5,0-2.1l25.9-25.9c.6-.6,1.5-.6,2.1,0s.6,1.5,0,2.1l-25.9,25.9c-.3.3-.7.4-1.1.4Z"/>
  </g>
  <g class="cls-4">
    <path class="cls-1" d="M12.1,19.3c-3.4,0-6.2-2.8-6.2-6.2s2.8-6.2,6.2-6.2,6.2,2.8,6.2,6.2-2.8,6.2-6.2,6.2ZM12.1,9.8c-1.8,0-3.3,1.5-3.3,3.3s1.5,3.3,3.3,3.3,3.3-1.5,3.3-3.3-1.5-3.3-3.3-3.3Z"/>
    <path class="cls-2" d="M55.8,14.5h-29.2c-.8,0-1.5-.7-1.5-1.5s.7-1.5,1.5-1.5h29.2c.8,0,1.5.7,1.5,1.5s-.7,1.5-1.5,1.5Z"/>
    <path class="cls-1" d="M12.1,38.2c-3.4,0-6.2-2.8-6.2-6.2s2.8-6.2,6.2-6.2,6.2,2.8,6.2,6.2-2.8,6.2-6.2,6.2ZM12.1,28.7c-1.8,0-3.3,1.5-3.3,3.3s1.5,3.3,3.3,3.3,3.3-1.5,3.3-3.3-1.5-3.3-3.3-3.3Z"/>
    <path class="cls-2" d="M55.8,33.5h-29.2c-.8,0-1.5-.7-1.5-1.5s.7-1.5,1.5-1.5h29.2c.8,0,1.5.7,1.5,1.5s-.7,1.5-1.5,1.5Z"/>
    <path class="cls-1" d="M12.1,57.2c-3.4,0-6.2-2.8-6.2-6.2s2.8-6.2,6.2-6.2,6.2,2.8,6.2,6.2-2.8,6.2-6.2,6.2ZM12.1,47.7c-1.8,0-3.3,1.5-3.3,3.3s1.5,3.3,3.3,3.3,3.3-1.5,3.3-3.3-1.5-3.3-3.3-3.3Z"/>
    <path class="cls-2" d="M55.8,52.5h-29.2c-.8,0-1.5-.7-1.5-1.5s.7-1.5,1.5-1.5h29.2c.8,0,1.5.7,1.5,1.5s-.7,1.5-1.5,1.5Z"/>
  </g>
  <g>
    <path class="cls-1" d="M45.8,51.7c-.6-.6-1.5-.6-2.1,0l-6.5,6.5v-19.3c0-.8-.7-1.5-1.5-1.5s-1.5.7-1.5,1.5v19.3l-6.5-6.5c-.6-.6-1.5-.6-2.1,0s-.6,1.5,0,2.1l9.1,9.1c.3.3.7.4,1.1.4s.8-.1,1.1-.4l9.1-9.1c.6-.6.6-1.5,0-2.1Z"/>
    <g>
      <path class="cls-2" d="M59.2,13.6L48.1,1.1c-.3-.3-.7-.5-1.1-.5H13.2c-.8,0-1.5.7-1.5,1.5v7.9h3V3.6h31.6l10.3,11.6v41.7h-7.6l-3,3h12c.8,0,1.5-.7,1.5-1.5V14.6c0-.4-.1-.7-.4-1Z"/>
      <path class="cls-2" d="M14.7,56.9v-25.1h-3v26.6c0,.8.7,1.5,1.5,1.5h12l-3-3h-7.6Z"/>
    </g>
    <g>
      <path class="cls-1" d="M41.9,13H7.2c-1.5,0-2.8,1.2-2.8,2.8v10.2c0,1.5,1.2,2.8,2.8,2.8h34.7c1.5,0,2.8-1.3,2.8-2.8v-10.2c0-1.5-1.2-2.8-2.8-2.8ZM17.3,21.5c-.2.5-.5.9-.8,1.2-.4.4-.8.6-1.2.8s-1,.3-1.5.3h-2v2h-1.9v-9.7h3.9c.4,0,.7,0,1,.1.3,0,.6.2.9.4.3.2.6.4.8.6s.4.5.6.8c.2.3.3.6.4.9,0,.3.1.7.1,1,0,.5,0,1-.3,1.5ZM28.3,22.2c-.1.4-.3.8-.5,1.2-.2.4-.5.7-.8,1-.3.3-.6.6-1,.8s-.7.4-1.2.5c-.4.1-.8.2-1.3.2h-2.9v-9.7h2.9c.4,0,.9,0,1.3.2.4.1.8.3,1.2.5.4.2.7.5,1,.8.3.3.5.6.8,1s.4.7.5,1.2c.1.4.2.8.2,1.3s0,.9-.2,1.3ZM39.3,18h-4.9v2h2.9v1.9h-2.9v3.9h-1.9v-9.7h6.8v1.9Z"/>
      <path class="cls-1" d="M25.7,18.9c-.3-.3-.6-.5-.9-.6-.4-.2-.7-.2-1.1-.2h-1v5.8h1c.4,0,.8,0,1.1-.2.4-.2.7-.4.9-.6s.5-.6.6-.9c.2-.4.2-.7.2-1.1s0-.8-.2-1.1c-.2-.4-.4-.7-.6-.9Z"/>
      <path class="cls-1" d="M15.1,18.6c-.2-.2-.4-.3-.6-.4-.2-.1-.5-.2-.8-.2h-2v3.9h2c.3,0,.5,0,.8-.2.2-.1.4-.2.6-.4.2-.2.3-.4.4-.6s.2-.5.2-.8,0-.5-.2-.8c-.1-.2-.2-.4-.4-.6Z"/>
    </g>
  </g>
</svg>