<?xml version="1.0" encoding="UTF-8"?>
<svg id="Layer_1" data-name="Layer 1" xmlns="http://www.w3.org/2000/svg" version="1.1" viewBox="0 0 64 64">
  <defs>
    <style>
      .cls-1 {
        fill: #facc18;
      }

      .cls-1, .cls-2 {
        stroke-width: 0px;
      }

      .cls-2 {
        fill: #d0d4da;
      }
    </style>
  </defs>
  <path class="cls-2" d="M54.1,13.2c-.8-.2-1.6.3-1.8,1.1l-1.9,7.1c-3.8-6.5-10.7-10.7-18.4-10.7s-17.3,5.8-20.2,14.5c-.3.8.2,1.6.9,1.9.8.3,1.6-.2,1.9-.9,2.5-7.5,9.5-12.5,17.4-12.5s13.1,3.8,16.2,9.8l-8.1-2.1c-.8-.2-1.6.3-1.8,1.1-.2.8.3,1.6,1.1,1.8l11,2.9c.1,0,.3,0,.4,0,0,0,0,0,0,0s0,0,0,0,0,0,0,0c0,0,0,0,0,0,.2,0,.3,0,.5,0,.1,0,.2-.1.3-.2,0,0,0,0,.1,0,.2-.2.4-.4.5-.7,0,0,0,0,0,0l2.9-11c.2-.8-.3-1.6-1.1-1.8Z"/>
  <path class="cls-1" d="M51.3,36.9c-.8-.3-1.6.2-1.9.9-2.5,7.5-9.5,12.5-17.4,12.5s-13.1-3.8-16.2-9.8l8,2.1c.8.2,1.6-.3,1.8-1.1.2-.8-.3-1.6-1.1-1.8l-11-2.9s0,0,0,0c-.1,0-.2,0-.3,0-.1,0-.2,0-.3,0,0,0,0,0,0,0,0,0,0,0,0,0-.1,0-.3.1-.4.2,0,0,0,0,0,0-.1.1-.2.2-.3.4,0,0,0,0,0,0,0,0,0,.2-.1.2l-2.9,11c-.2.8.3,1.6,1.1,1.8.1,0,.3,0,.4,0,.7,0,1.3-.4,1.4-1.1l1.9-7.1c3.8,6.5,10.7,10.7,18.4,10.7s17.3-5.8,20.2-14.5c.3-.8-.2-1.6-.9-1.9Z"/>
</svg>