<?xml version="1.0" encoding="UTF-8"?>
<svg id="Layer_1" data-name="Layer 1" xmlns="http://www.w3.org/2000/svg" version="1.1" viewBox="0 0 64 64">
  <defs>
    <style>
      .cls-1 {
        fill: #facc18;
      }

      .cls-1, .cls-2 {
        stroke-width: 0px;
      }

      .cls-2 {
        fill: #d0d4da;
      }
    </style>
  </defs>
  <path class="cls-1" d="M36.8,39.7c-4.3,0-7.7-3.5-7.7-7.7s3.5-7.7,7.7-7.7,7.7,3.5,7.7,7.7-3.5,7.7-7.7,7.7ZM36.8,27.3c-2.6,0-4.7,2.1-4.7,4.7s2.1,4.7,4.7,4.7,4.7-2.1,4.7-4.7-2.1-4.7-4.7-4.7Z"/>
  <path class="cls-2" d="M36.8,10.6c-11.8,0-21.4,9.6-21.4,21.4v18.4h-6.5v-1.6c0-.8-.7-1.5-1.5-1.5s-1.5.7-1.5,1.5v3.1c0,.8.7,1.5,1.5,1.5h29.4c11.8,0,21.4-9.6,21.4-21.4s-9.6-21.4-21.4-21.4ZM36.8,50.4h-18.4v-18.4c0-10.1,8.2-18.4,18.4-18.4s18.4,8.2,18.4,18.4-8.2,18.4-18.4,18.4Z"/>
</svg>