<?xml version="1.0" encoding="UTF-8"?>
<svg id="Layer_1" data-name="Layer 1" xmlns="http://www.w3.org/2000/svg" version="1.1" viewBox="0 0 64 64">
  <defs>
    <style>
      .cls-1 {
        fill: #facc18;
      }

      .cls-1, .cls-2 {
        stroke-width: 0px;
      }

      .cls-2 {
        fill: #d0d4da;
      }
    </style>
  </defs>
  <g>
    <path class="cls-2" d="M53.9,17.1l-7.8-7.8c-1.2-1.2-2.8-1.9-4.5-1.9H14.6c-3.5,0-6.3,2.8-6.3,6.3v35.2c0,3.5,2.8,6.3,6.3,6.3h11.4v-3h-6.9v-6.4l-3-3v9.4h-1.5c-1.8,0-3.4-1.5-3.4-3.4V13.8c0-1.8,1.5-3.4,3.4-3.4h4.4v9.2c0,2.6,2.1,4.7,4.7,4.7h13.8c2.6,0,4.7-2.1,4.7-4.7v-9.1c.7.1,1.3.4,1.8.9l7.8,7.8c.6.6,1,1.5,1,2.4v27.4c0,1.8-1.5,3.4-3.4,3.4h-1.5v-9.4l-3,3v6.4h-6.9v3h11.4c3.5,0,6.3-2.8,6.3-6.3v-27.4c0-1.7-.7-3.3-1.9-4.5ZM39.1,19.7c0,.9-.7,1.7-1.7,1.7h-13.8c-.9,0-1.7-.7-1.7-1.7v-9.2h17.2v9.2Z"/>
    <path class="cls-2" d="M41.9,31.9h-1.7l7.7,7.7v-1.5c0-3.4-2.7-6.2-6-6.2Z"/>
    <path class="cls-2" d="M16.1,38.1v1.5l7.7-7.7h-1.7c-3.3,0-6,2.8-6,6.2Z"/>
  </g>
  <path class="cls-1" d="M42.1,40.2l-9.1-9.1c-.6-.6-1.5-.6-2.1,0l-9.1,9.1c-.6.6-.6,1.5,0,2.1s1.5.6,2.1,0l6.5-6.5v19.3c0,.8.7,1.5,1.5,1.5s1.5-.7,1.5-1.5v-19.3l6.5,6.5c.3.3.7.4,1.1.4s.8-.1,1.1-.4c.6-.6.6-1.5,0-2.1Z"/>
</svg>