<?xml version="1.0" encoding="UTF-8"?>
<svg id="Layer_1" data-name="Layer 1" xmlns="http://www.w3.org/2000/svg" version="1.1" viewBox="0 0 64 64">
  <defs>
    <style>
      .cls-1 {
        fill: #facc18;
      }

      .cls-1, .cls-2 {
        stroke-width: 0px;
      }

      .cls-2 {
        fill: #d0d4da;
      }
    </style>
  </defs>
  <path class="cls-1" d="M32,40.9c-4.9,0-8.9-4-8.9-8.9s4-8.9,8.9-8.9,8.9,4,8.9,8.9-4,8.9-8.9,8.9ZM32,27.3c-2.6,0-4.7,2.1-4.7,4.7s2.1,4.7,4.7,4.7,4.7-2.1,4.7-4.7-2.1-4.7-4.7-4.7Z"/>
  <path class="cls-2" d="M32,49.1c-17.2,0-24.9-15.5-25.2-16.2-.3-.6-.3-1.3,0-1.9.3-.7,8-16.2,25.2-16.2s24.9,15.5,25.2,16.2c.3.6.3,1.3,0,1.9-.3.7-8,16.2-25.2,16.2ZM11.2,32c1.8,3.1,8.4,12.8,20.8,12.8s19-9.7,20.8-12.8c-1.8-3.1-8.4-12.8-20.8-12.8s-19,9.7-20.8,12.8Z"/>
</svg>