<?xml version="1.0" encoding="UTF-8"?>
<svg id="Layer_1" data-name="Layer 1" xmlns="http://www.w3.org/2000/svg" version="1.1" viewBox="0 0 64 64">
  <defs>
    <style>
      .cls-1 {
        fill: #f17171;
        stroke-width: 0px;
      }
    </style>
  </defs>
  <path class="cls-1" d="M41.8,55.3h-19.6c-3.5,0-6.5-2.8-6.8-6.3l-1.9-26.8h-.4c-1.1,0-2.1-.9-2.1-2.1s.9-2.1,2.1-2.1h9.8v-5c0-2.4,2-4.4,4.4-4.4h9.5c2.4,0,4.4,2,4.4,4.4v5h9.8c1.1,0,2.1.9,2.1,2.1s-.9,2.1-2.1,2.1h-.4l-1.9,26.8c-.2,3.5-3.2,6.3-6.8,6.3ZM17.7,22.2l1.9,26.5c0,1.4,1.3,2.5,2.7,2.5h19.6c1.4,0,2.6-1.1,2.7-2.5l1.9-26.5h-28.7ZM27,18.1h10.1v-5c0-.2-.1-.3-.3-.3h-9.5c-.2,0-.3.1-.3.3v5ZM36.7,45.9c-1.1,0-2.1-.9-2.1-2.1v-14.2c0-1.1.9-2.1,2.1-2.1s2.1.9,2.1,2.1v14.2c0,1.1-.9,2.1-2.1,2.1ZM27.3,45.9c-1.1,0-2.1-.9-2.1-2.1v-14.2c0-1.1.9-2.1,2.1-2.1s2.1.9,2.1,2.1v14.2c0,1.1-.9,2.1-2.1,2.1Z"/>
</svg>