<?xml version="1.0" encoding="UTF-8"?>
<svg id="Layer_1" data-name="Layer 1" xmlns="http://www.w3.org/2000/svg" version="1.1" viewBox="0 0 64 64">
  <defs>
    <style>
      .cls-1 {
        fill: #facc18;
      }

      .cls-1, .cls-2 {
        stroke-width: 0px;
      }

      .cls-2 {
        fill: #d0d4da;
      }
    </style>
  </defs>
  <path class="cls-1" d="M10.4,37.3c-.5.2-1.1.3-1.7.3-3,0-5.5-2.5-5.5-5.5s2.5-5.5,5.5-5.5,1.1.1,1.5.2l2.3-2.3c-1.2-.6-2.4-1-3.8-1C4.1,23.6.2,27.4.2,32.1s3.8,8.5,8.5,8.5,2.8-.4,3.9-1l-2.3-2.3Z"/>
  <path class="cls-2" d="M53.2,30.5H17.2l6.5-6.5c.6-.6.6-1.5,0-2.1s-1.5-.6-2.1,0l-9.1,9.1c-.3.3-.4.7-.4,1.1s.2.8.4,1.1l9.1,9.1c.3.3.7.4,1.1.4s.8-.1,1.1-.4c.6-.6.6-1.5,0-2.1l-6.5-6.5h36c4.2,0,7.6,3.4,7.6,7.6s.7,1.5,1.5,1.5,1.5-.7,1.5-1.5c0-5.8-4.7-10.6-10.6-10.6Z"/>
</svg>